<svg width="46" height="46" viewBox="0 0 46 46" fill="none" xmlns="http://www.w3.org/2000/svg">
<path d="M14.6627 40.0776C14.6052 40.0776 14.5286 40.1159 14.4711 40.1159C10.7527 38.2759 7.7244 35.2284 5.86523 31.5101C5.86523 31.4526 5.90357 31.3759 5.90357 31.3184C8.2419 32.0084 10.6569 32.5259 13.0527 32.9284C13.4744 35.3434 13.9727 37.7393 14.6627 40.0776Z" fill="#2BADE2"/>
<path d="M40.1352 31.5293C38.2377 35.3434 35.0752 38.4293 31.2227 40.2884C31.951 37.8543 32.5643 35.4009 32.9668 32.9284C35.3818 32.5259 37.7585 32.0084 40.0968 31.3184C40.0777 31.3951 40.1352 31.4718 40.1352 31.5293Z" fill="#2BADE2"/>
<path d="M40.2885 14.7776C37.8735 14.0493 35.4393 13.4551 32.9668 13.0335C32.5643 10.561 31.9702 8.10763 31.2227 5.71179C35.1902 7.60929 38.391 10.8101 40.2885 14.7776Z" fill="#2BADE2"/>
<path d="M14.6627 5.9228C13.9727 8.26113 13.4744 10.6378 13.0719 13.0528C10.5994 13.4361 8.14608 14.0495 5.71191 14.7778C7.57108 10.9253 10.6569 7.7628 14.4711 5.8653C14.5286 5.8653 14.6052 5.9228 14.6627 5.9228Z" fill="#2BADE2"/>
<path d="M29.6894 12.6304C25.2427 12.1321 20.7577 12.1321 16.311 12.6304C16.7902 10.0046 17.4035 7.37878 18.266 4.84878C18.3044 4.69545 18.2852 4.58045 18.3044 4.42711C19.8185 4.06295 21.371 3.83295 23.0002 3.83295C24.6102 3.83295 26.1819 4.06295 27.6769 4.42711C27.696 4.58045 27.696 4.69545 27.7344 4.84878C28.5969 7.39795 29.2102 10.0046 29.6894 12.6304Z" fill="#2BADE2"/>
<path d="M12.631 29.6887C9.986 29.2095 7.37933 28.5962 4.84933 27.7337C4.696 27.6954 4.581 27.7145 4.42766 27.6954C4.0635 26.1812 3.8335 24.6287 3.8335 22.9995C3.8335 21.3895 4.0635 19.8179 4.42766 18.3229C4.581 18.3037 4.696 18.3037 4.84933 18.2654C7.3985 17.422 9.986 16.7895 12.631 16.3104C12.1518 20.757 12.1518 25.242 12.631 29.6887Z" fill="#2BADE2"/>
<path d="M42.1666 22.9995C42.1666 24.6287 41.9366 26.1812 41.5725 27.6954C41.4191 27.7145 41.3041 27.6954 41.1508 27.7337C38.6016 28.577 35.995 29.2095 33.3691 29.6887C33.8675 25.242 33.8675 20.757 33.3691 16.3104C35.995 16.7895 38.6208 17.4029 41.1508 18.2654C41.3041 18.3037 41.4191 18.3229 41.5725 18.3229C41.9366 19.837 42.1666 21.3895 42.1666 22.9995Z" fill="#2BADE2"/>
<path d="M29.6894 33.3691C29.2102 36.0141 28.5969 38.6207 27.7344 41.1507C27.696 41.3041 27.696 41.4191 27.6769 41.5724C26.1819 41.9366 24.6102 42.1666 23.0002 42.1666C21.371 42.1666 19.8185 41.9366 18.3044 41.5724C18.2852 41.4191 18.3044 41.3041 18.266 41.1507C17.4227 38.6016 16.7902 36.0141 16.311 33.3691C18.5344 33.6182 20.7577 33.7907 23.0002 33.7907C25.2427 33.7907 27.4852 33.6182 29.6894 33.3691Z" fill="#2BADE2"/>
<path d="M30.2132 30.2127C25.4194 30.8175 20.5809 30.8175 15.7871 30.2127C15.1823 25.4189 15.1823 20.5803 15.7871 15.7866C20.5809 15.1817 25.4194 15.1817 30.2132 15.7866C30.818 20.5803 30.818 25.4189 30.2132 30.2127Z" fill="#2BADE2"/>
</svg>
