<svg width="46" height="46" viewBox="0 0 46 46" fill="none" xmlns="http://www.w3.org/2000/svg">
<g clip-path="url(#clip0_1332_607)">
<path d="M14.6627 40.0775C14.6052 40.0775 14.5286 40.1159 14.4711 40.1159C10.7527 38.2759 7.7244 35.2284 5.86523 31.51C5.86523 31.4525 5.90357 31.3759 5.90357 31.3184C8.2419 32.0084 10.6569 32.5259 13.0527 32.9284C13.4744 35.3434 13.9727 37.7392 14.6627 40.0775Z" fill="#333872"/>
<path d="M40.1352 31.5292C38.2377 35.3434 35.0752 38.4292 31.2227 40.2884C31.951 37.8542 32.5643 35.4009 32.9668 32.9284C35.3818 32.5259 37.7585 32.0084 40.0968 31.3184C40.0777 31.395 40.1352 31.4717 40.1352 31.5292Z" fill="#333872"/>
<path d="M40.2885 14.7777C37.8735 14.0494 35.4393 13.4552 32.9668 13.0336C32.5643 10.5611 31.9702 8.10775 31.2227 5.71191C35.1902 7.60941 38.391 10.8102 40.2885 14.7777Z" fill="#333872"/>
<path d="M14.6627 5.92273C13.9727 8.26107 13.4744 10.6377 13.0719 13.0527C10.5994 13.4361 8.14608 14.0494 5.71191 14.7777C7.57108 10.9252 10.6569 7.76273 14.4711 5.86523C14.5286 5.86523 14.6052 5.92273 14.6627 5.92273Z" fill="#333872"/>
<path d="M29.6894 12.6305C25.2427 12.1322 20.7577 12.1322 16.311 12.6305C16.7902 10.0047 17.4035 7.37884 18.266 4.84884C18.3044 4.69551 18.2852 4.58051 18.3044 4.42717C19.8185 4.06301 21.371 3.83301 23.0002 3.83301C24.6102 3.83301 26.1819 4.06301 27.6769 4.42717C27.696 4.58051 27.696 4.69551 27.7344 4.84884C28.5969 7.39801 29.2102 10.0047 29.6894 12.6305Z" fill="#333872"/>
<path d="M12.631 29.6889C9.986 29.2097 7.37933 28.5964 4.84933 27.7339C4.696 27.6955 4.581 27.7147 4.42766 27.6955C4.0635 26.1814 3.8335 24.6289 3.8335 22.9997C3.8335 21.3897 4.0635 19.818 4.42766 18.323C4.581 18.3039 4.696 18.3039 4.84933 18.2655C7.3985 17.4222 9.986 16.7897 12.631 16.3105C12.1518 20.7572 12.1518 25.2422 12.631 29.6889Z" fill="#333872"/>
<path d="M42.1666 22.9997C42.1666 24.6289 41.9366 26.1814 41.5725 27.6955C41.4191 27.7147 41.3041 27.6955 41.1508 27.7339C38.6016 28.5772 35.995 29.2097 33.3691 29.6889C33.8675 25.2422 33.8675 20.7572 33.3691 16.3105C35.995 16.7897 38.6208 17.403 41.1508 18.2655C41.3041 18.3039 41.4191 18.323 41.5725 18.323C41.9366 19.8372 42.1666 21.3897 42.1666 22.9997Z" fill="#333872"/>
<path d="M29.6894 33.3691C29.2102 36.0141 28.5969 38.6208 27.7344 41.1508C27.696 41.3041 27.696 41.4191 27.6769 41.5725C26.1819 41.9366 24.6102 42.1666 23.0002 42.1666C21.371 42.1666 19.8185 41.9366 18.3044 41.5725C18.2852 41.4191 18.3044 41.3041 18.266 41.1508C17.4227 38.6016 16.7902 36.0141 16.311 33.3691C18.5344 33.6183 20.7577 33.7908 23.0002 33.7908C25.2427 33.7908 27.4852 33.6183 29.6894 33.3691Z" fill="#333872"/>
<path d="M30.2132 30.2127C25.4194 30.8175 20.5809 30.8175 15.7871 30.2127C15.1823 25.419 15.1823 20.5804 15.7871 15.7866C20.5809 15.1818 25.4194 15.1818 30.2132 15.7866C30.818 20.5804 30.818 25.419 30.2132 30.2127Z" fill="#333872"/>
</g>
<defs>
<clipPath id="clip0_1332_607">
<rect width="46" height="46" rx="23" fill="white"/>
</clipPath>
</defs>
</svg>
