<svg width="45" height="45" viewBox="0 0 45 45" fill="none" xmlns="http://www.w3.org/2000/svg">
<g clip-path="url(#clip0_706_1795)">
<rect width="45" height="45" rx="22.5" fill="white" fill-opacity="0.15"/>
<path d="M30.729 18.4679C31.8738 19.0299 32.8415 19.8916 33.5274 20.9597C33.861 21.4812 34.1176 22.0421 34.2978 22.6424C34.4779 23.2433 34.5687 23.8633 34.5687 24.5031H32.8377C32.8417 23.8285 32.7013 23.1608 32.4258 22.5439C32.1601 21.9438 31.7814 21.3995 31.3099 20.94C30.8336 20.4791 30.274 20.1111 29.6604 19.8551C29.0234 19.5866 28.3377 19.4502 27.6455 19.4543C26.9533 19.4502 26.2676 19.5866 25.6306 19.8551C25.017 20.1111 24.4574 20.4791 23.9811 20.94C23.5098 21.3995 23.1313 21.9439 22.8658 22.5439C22.5901 23.1607 22.4495 23.8285 22.4533 24.5031C22.4547 25.295 22.2622 26.0755 21.8922 26.7775C21.5264 27.4866 20.9957 28.0995 20.344 28.5655C21.4889 29.1273 22.4569 29.9891 23.1429 31.0572C23.4766 31.5787 23.7332 32.1396 23.9133 32.7399C24.0935 33.3409 24.1842 33.9609 24.1842 34.6006H22.4533C22.457 33.926 22.3164 33.2582 22.0407 32.6414C21.7752 32.0414 21.3967 31.497 20.9255 31.0375C20.4491 30.5766 19.8896 30.2086 19.2759 29.9527C18.639 29.6842 17.9532 29.5478 17.2611 29.5518C16.5689 29.5478 15.8832 29.6842 15.2462 29.9527C14.6326 30.2086 14.073 30.5766 13.5966 31.0375C13.1251 31.497 12.7464 32.0413 12.4808 32.6414C12.2055 33.2583 12.0653 33.9261 12.0695 34.6006H10.3379C10.3379 33.9603 10.428 33.3409 10.6082 32.7399C10.7883 32.1396 11.0456 31.5787 11.3786 31.0572C12.0646 29.9891 13.0326 29.1274 14.1775 28.5655C13.526 28.0994 12.9955 27.4866 12.6299 26.7775C12.26 26.0755 12.0674 25.295 12.0688 24.5031C12.065 23.8285 12.2054 23.1608 12.4808 22.5439C12.7464 21.9438 13.1251 21.3995 13.5966 20.94C14.073 20.4791 14.6326 20.1111 15.2462 19.8551C15.8832 19.5866 16.5689 19.4502 17.2611 19.4543C18.0812 19.4543 18.8609 19.6359 19.6003 19.9998C20.3243 20.3511 20.9545 20.8669 21.4393 21.5052C21.7784 20.8523 22.221 20.2576 22.7503 19.7437C23.2825 19.2262 23.8942 18.7956 24.5626 18.4679C23.9108 18.002 23.3801 17.3891 23.0143 16.6799C22.6444 15.978 22.4519 15.1975 22.4533 14.4055C22.4533 13.7129 22.5906 13.0602 22.8658 12.4464C23.1313 11.8463 23.5098 11.302 23.9811 10.8425C24.4574 10.3816 25.017 10.0135 25.6306 9.7576C26.2676 9.48912 26.9533 9.35271 27.6455 9.35678C28.3575 9.35678 29.0291 9.49039 29.6604 9.7576C30.274 10.0135 30.8336 10.3816 31.3099 10.8425C31.7812 11.302 32.1597 11.8463 32.4252 12.4464C32.7004 13.0602 32.8377 13.7129 32.8377 14.4055C32.8391 15.1975 32.6466 15.978 32.2767 16.6799C31.9108 17.3891 31.3808 18.0019 30.729 18.4679ZM17.2604 27.8691C17.7204 27.8707 18.1759 27.779 18.5987 27.5994C19.0086 27.4289 19.3825 27.1834 19.7009 26.876C20.0116 26.5743 20.2601 26.219 20.4446 25.8108C20.6304 25.3996 20.7249 24.9536 20.7217 24.5031C20.7217 24.0474 20.6298 23.6134 20.4446 23.2015C20.2676 22.8008 20.0152 22.4372 19.7009 22.1301C19.3825 21.8227 19.0086 21.5773 18.5987 21.4067C18.1759 21.2272 17.7204 21.1354 17.2604 21.137C16.782 21.137 16.3347 21.2269 15.9147 21.4067C15.5077 21.5786 15.1365 21.8239 14.82 22.1301C14.5087 22.4318 14.2608 22.7889 14.0763 23.2015C13.8918 23.611 13.7971 24.0546 13.7985 24.5031C13.7985 24.9679 13.8917 25.4038 14.0763 25.8114C14.2544 26.2096 14.5067 26.571 14.82 26.8766C15.1306 27.1783 15.4959 27.4196 15.9147 27.5994C16.3397 27.7804 16.7979 27.8722 17.2604 27.8691ZM24.1842 14.4055C24.1842 14.8704 24.2762 15.3063 24.4613 15.7139C24.6395 16.1121 24.8918 16.4735 25.205 16.7791C25.5157 17.0808 25.881 17.3221 26.3004 17.5019C26.7252 17.6828 27.1832 17.7746 27.6455 17.7716C28.1057 17.7733 28.5614 17.6815 28.9844 17.5019C29.3941 17.3312 29.7677 17.0858 30.086 16.7785C30.3972 16.4768 30.6451 16.1215 30.8297 15.7133C31.0148 15.3063 31.1074 14.8698 31.1074 14.4055C31.1074 13.9499 31.0142 13.5159 30.8297 13.1039C30.6527 12.7033 30.4003 12.3397 30.086 12.0326C29.7677 11.7253 29.394 11.4799 28.9844 11.3092C28.5614 11.1296 28.1057 11.0378 27.6455 11.0395C27.1677 11.0395 26.7198 11.1294 26.3004 11.3092C25.8932 11.481 25.5218 11.7263 25.205 12.0326C24.8944 12.3343 24.6458 12.6914 24.4613 13.1039C24.2771 13.5135 24.1826 13.9571 24.1842 14.4055Z" fill="#2BADE2"/>
</g>
<defs>
<clipPath id="clip0_706_1795">
<rect width="45" height="45" rx="22.5" fill="white"/>
</clipPath>
</defs>
</svg>
