<svg width="45" height="45" viewBox="0 0 45 45" fill="none" xmlns="http://www.w3.org/2000/svg">
<g clip-path="url(#clip0_1189_5221)">
<rect width="45" height="45" rx="22.5" fill="black" fill-opacity="0.1"/>
<path d="M20.0493 27.2344L20.0482 27.2354C19.6852 27.586 19.2592 27.8657 18.7925 28.0601C18.3085 28.2654 17.7874 28.3704 17.2612 28.3689C16.7312 28.372 16.2061 28.2667 15.7188 28.0592L15.7174 28.0586C15.2454 27.856 14.8282 27.5814 14.4716 27.235L14.4708 27.2342C14.1129 26.885 13.8243 26.4719 13.6203 26.0164C13.4059 25.5424 13.2985 25.0363 13.2985 24.5028M20.0493 27.2344L13.7985 24.5028M20.0493 27.2344C20.4062 26.8878 20.6906 26.4803 20.9002 26.0165L20.9003 26.0164C21.1155 25.5401 21.2252 25.0233 21.2217 24.501C21.2215 23.9771 21.1152 23.4742 20.9013 22.9977C20.6985 22.5392 20.4097 22.1233 20.0503 21.7723L20.0482 21.7702C19.6852 21.4197 19.2592 21.14 18.7925 20.9455C18.3079 20.74 17.7862 20.635 17.2595 20.6368C16.7172 20.6369 16.2033 20.7392 15.7191 20.9463M20.0493 27.2344L15.7191 20.9463M13.2985 24.5028H13.7985M13.2985 24.5028C13.2985 24.5033 13.2985 24.5039 13.2985 24.5044L13.7985 24.5028M13.2985 24.5028C13.2971 23.9835 13.4069 23.4698 13.6204 22.9959M13.7985 24.5028C13.7971 24.0544 13.8918 23.6107 14.0763 23.2012M13.6204 22.9959C13.6202 22.9963 13.62 22.9967 13.6198 22.9971L14.0763 23.2012M13.6204 22.9959C13.8297 22.5283 14.1134 22.1184 14.472 21.7709L14.4723 21.7706C14.833 21.4215 15.2558 21.1421 15.7191 20.9463M13.6204 22.9959L14.0763 23.2012M14.0763 23.2012C14.2608 22.7887 14.5087 22.4316 14.82 22.1299L15.7191 20.9463M15.7191 20.9463C15.7187 20.9465 15.7183 20.9466 15.7179 20.9468L15.9147 21.4065L15.7202 20.9458C15.7198 20.946 15.7194 20.9462 15.7191 20.9463ZM23.6842 14.4063C23.6844 14.9384 23.7901 15.4444 24.0055 15.9192C24.2095 16.3746 24.498 16.7876 24.8559 17.1367L24.8567 17.1375C25.2133 17.4839 25.6306 17.7585 26.1034 17.9612L26.1045 17.9617C26.5916 18.1691 27.1164 18.2744 27.6462 18.2713C28.1726 18.273 28.694 18.1679 29.1782 17.9626C29.6447 17.768 30.0705 17.4883 30.4333 17.1378L30.434 17.1372C30.7917 16.7905 31.0753 16.3831 31.2848 15.9201C31.5007 15.4455 31.6074 14.938 31.6074 14.4053C31.6074 13.8797 31.4995 13.3764 31.2865 12.9006C31.0837 12.4419 30.7948 12.0259 30.4354 11.6747L30.4333 11.6727C30.0705 11.3223 29.6447 11.0426 29.1783 10.848C28.6935 10.6425 28.1716 10.5374 27.6446 10.5392M23.6842 14.4063C23.6825 13.8867 23.792 13.3728 24.0054 12.8985L24.4613 13.1037L24.0049 12.8995C24.2144 12.4311 24.499 12.0211 24.8567 11.6737L24.8574 11.673C25.2183 11.3239 25.6413 11.0445 26.1047 10.8488C26.5885 10.6416 27.103 10.5394 27.6446 10.5392M23.6842 14.4063C23.6842 14.4066 23.6842 14.4068 23.6842 14.4071L24.1842 14.4053H23.6842C23.6842 14.4056 23.6842 14.406 23.6842 14.4063ZM27.6446 10.5392C27.6449 10.5392 27.6452 10.5392 27.6455 10.5392V11.0392L27.6436 10.5393C27.6439 10.5393 27.6442 10.5393 27.6446 10.5392ZM30.4382 18.061L29.7574 18.5477L30.5087 18.9165C31.5718 19.4384 32.4699 20.2382 33.1062 21.2289C33.4145 21.7108 33.6518 22.2293 33.8189 22.7859C33.9377 23.1821 34.0144 23.5875 34.0484 24.0028H33.3164C33.2645 23.43 33.1183 22.8684 32.8827 22.3405C32.5911 21.6822 32.1757 21.0853 31.6589 20.5817L31.6576 20.5804C31.1364 20.0762 30.5245 19.6737 29.8537 19.3938C29.1554 19.0996 28.404 18.95 27.6455 18.9541C26.887 18.95 26.1356 19.0996 25.4373 19.3938C24.7665 19.6737 24.1545 20.0761 23.6334 20.5804L23.632 20.5818C23.1155 21.0854 22.7004 21.6822 22.409 22.3403C22.1046 23.0216 21.9493 23.7593 21.9533 24.5047C21.9544 25.2146 21.7817 25.9144 21.4499 26.5441L21.4499 26.5441L21.4479 26.548C21.1186 27.1863 20.6407 27.7384 20.0532 28.1585L19.3722 28.6453L20.1237 29.0141C21.1871 29.5359 22.0855 30.3359 22.722 31.3269C23.0301 31.8085 23.2674 32.3269 23.4344 32.8833C23.5532 33.2796 23.6299 33.685 23.6639 34.1003H22.9318C22.8797 33.5275 22.7334 32.9658 22.4976 32.438C22.2062 31.7798 21.7911 31.183 21.2746 30.6793L21.2732 30.6779C20.7521 30.1737 20.1402 29.7713 19.4695 29.4914C18.7711 29.1971 18.0196 29.0475 17.2611 29.0516C16.5026 29.0475 15.7511 29.1971 15.0528 29.4913C14.3821 29.7712 13.7701 30.1737 13.2489 30.6779L13.2477 30.6792C12.7308 31.1829 12.3154 31.7798 12.0238 32.4382C11.7884 32.966 11.6424 33.5276 11.5906 34.1003H10.858C10.8919 33.6847 10.9683 33.2796 11.0871 32.8834C11.254 32.3273 11.4918 31.8088 11.7996 31.3267C12.4361 30.3359 13.3345 29.5359 14.3978 29.0141L15.149 28.6454L14.4684 28.1586C13.8811 27.7384 13.4034 27.1863 13.0743 26.5481L13.0743 26.548L13.0722 26.5441C12.7402 25.9141 12.5676 25.214 12.5689 24.5037L12.5688 24.5C12.5654 23.8967 12.691 23.2995 12.9374 22.7474L12.938 22.7461C13.1776 22.2048 13.5193 21.7135 13.9449 21.2985C14.3761 20.8815 14.8828 20.5482 15.4387 20.3163L15.4404 20.3156C16.0149 20.0735 16.6335 19.9504 17.2581 19.9541V19.9541H17.2611C18.0044 19.9541 18.7086 20.118 19.3795 20.4482L19.382 20.4494C20.0357 20.7666 20.604 21.232 21.0412 21.8074L21.5189 22.4364L21.883 21.7354C22.1974 21.1303 22.6077 20.5788 23.0986 20.1021L23.0988 20.1019C23.5932 19.6212 24.1615 19.2211 24.7827 18.9167L25.5347 18.5481L24.8534 18.061C24.2659 17.6409 23.788 17.0888 23.4587 16.4505L23.4587 16.4505L23.4567 16.4466C23.1247 15.8166 22.952 15.1164 22.9533 14.4062V14.4053C22.9533 13.7809 23.0766 13.1982 23.3221 12.6507L23.3231 12.6484C23.5625 12.1072 23.904 11.6159 24.3294 11.2009C24.7606 10.7839 25.2672 10.4507 25.8231 10.2188L25.8248 10.2181C26.3993 9.97595 27.018 9.85285 27.6426 9.85653H27.6455C28.2932 9.85653 28.8983 9.9777 29.4655 10.2178L29.4679 10.2188C30.0238 10.4507 30.5304 10.7839 30.9616 11.2009C31.387 11.6159 31.7285 12.1072 31.9679 12.6484L31.9689 12.6507C32.2144 13.1982 32.3377 13.7809 32.3377 14.4053V14.4062C32.339 15.1164 32.1663 15.8166 31.8343 16.4466L31.8323 16.4505C31.5029 17.089 31.0255 17.641 30.4382 18.061Z" fill="black" stroke="#343973"/>
</g>
<defs>
<clipPath id="clip0_1189_5221">
<rect width="45" height="45" rx="22.5" fill="white"/>
</clipPath>
</defs>
</svg>
