<svg width="45" height="45" viewBox="0 0 45 45" fill="none" xmlns="http://www.w3.org/2000/svg">
<path d="M44.8551 13.282C44.8299 11.3925 44.4756 9.52184 43.808 7.75363C43.2292 6.26216 42.345 4.90764 41.2121 3.7766C40.0792 2.64557 38.7224 1.76291 37.2285 1.185C35.4801 0.529774 33.633 0.175483 31.7659 0.137211C29.3619 0.029937 28.5998 0 22.4975 0C16.3952 0 15.6131 1.67285e-07 13.2266 0.137211C11.3603 0.175764 9.51414 0.530051 7.76655 1.185C6.27236 1.7625 4.91537 2.64503 3.7824 3.77611C2.64943 4.90719 1.76544 6.26193 1.18697 7.75363C0.529342 9.49778 0.17523 11.3413 0.139938 13.2046C0.0324855 15.6071 0 16.3679 0 22.4601C0 28.5522 -1.86182e-08 29.3306 0.139938 31.7155C0.177421 33.5816 0.529764 35.4227 1.18697 37.1715C1.76641 38.6628 2.65106 40.017 3.78441 41.1476C4.91775 42.2782 6.27487 43.1603 7.76905 43.7377C9.51186 44.4192 11.3584 44.7989 13.2291 44.8603C15.6356 44.9676 16.3977 45 22.5 45C28.6023 45 29.3844 45 31.7709 44.8603C33.6379 44.8236 35.4851 44.4701 37.2335 43.815C38.727 43.2364 40.0835 42.3535 41.2163 41.2226C42.3491 40.0916 43.2335 38.7375 43.813 37.2464C44.4702 35.5001 44.8226 33.6589 44.8601 31.7904C44.9675 29.3905 45 28.6296 45 22.5349C44.995 16.4428 44.995 15.6694 44.8551 13.282ZM22.4825 33.9808C16.1003 33.9808 10.9301 28.8192 10.9301 22.4476C10.9301 16.0761 16.1003 10.9145 22.4825 10.9145C25.5464 10.9145 28.4848 12.1296 30.6513 14.2924C32.8178 16.4553 34.0349 19.3888 34.0349 22.4476C34.0349 25.5064 32.8178 28.4399 30.6513 30.6028C28.4848 32.7657 25.5464 33.9808 22.4825 33.9808ZM34.4947 13.1772C34.1408 13.1775 33.7904 13.1082 33.4634 12.9731C33.1364 12.8381 32.8393 12.64 32.5891 12.3902C32.3389 12.1404 32.1405 11.8438 32.0052 11.5174C31.87 11.191 31.8005 10.8411 31.8009 10.4879C31.8009 10.1349 31.8705 9.78531 32.0058 9.45918C32.1411 9.13305 32.3395 8.83671 32.5895 8.5871C32.8395 8.33749 33.1363 8.13949 33.463 8.0044C33.7897 7.86931 34.1398 7.79978 34.4934 7.79978C34.847 7.79978 35.1971 7.86931 35.5238 8.0044C35.8505 8.13949 36.1473 8.33749 36.3973 8.5871C36.6474 8.83671 36.8457 9.13305 36.981 9.45918C37.1163 9.78531 37.186 10.1349 37.186 10.4879C37.186 11.9747 35.9815 13.1772 34.4947 13.1772Z" fill="#333872"/>
<path d="M22.4973 29.9521C26.6418 29.9521 30.0015 26.598 30.0015 22.4604C30.0015 18.3229 26.6418 14.9688 22.4973 14.9688C18.3529 14.9688 14.9932 18.3229 14.9932 22.4604C14.9932 26.598 18.3529 29.9521 22.4973 29.9521Z" fill="#333872"/>
<path d="M22.5042 29.9834C26.6486 29.9834 30.0083 26.6292 30.0083 22.4917C30.0083 18.3541 26.6486 15 22.5042 15C18.3597 15 15 18.3541 15 22.4917C15 26.6292 18.3597 29.9834 22.5042 29.9834Z" fill="#333872"/>
</svg>
