<svg width="46" height="46" viewBox="0 0 46 46" fill="none" xmlns="http://www.w3.org/2000/svg">
<path d="M34.5 3.83337H11.5C8.31833 3.83337 5.75 6.38254 5.75 9.52587V30.4367C5.75 33.58 8.31833 36.1292 11.5 36.1292H12.9567C14.49 36.1292 15.9467 36.7234 17.02 37.7967L20.2975 41.0359C21.7925 42.5117 24.2267 42.5117 25.7217 41.0359L28.9992 37.7967C30.0725 36.7234 31.5483 36.1292 33.0625 36.1292H34.5C37.6817 36.1292 40.25 33.58 40.25 30.4367V9.52587C40.25 6.38254 37.6817 3.83337 34.5 3.83337ZM31.97 20.125L29.7275 26.9484C29.44 28.0792 28.2325 28.9992 27.0058 28.9992H23.46C22.8467 28.9992 21.9842 28.7884 21.6008 28.405L18.7833 26.2009C18.7258 27.4275 18.17 27.945 16.8092 27.945H15.8892C14.4708 27.945 13.8958 27.3892 13.8958 26.0475V16.905C13.8958 15.5634 14.4708 15.0075 15.8892 15.0075H16.8283C18.2467 15.0075 18.8217 15.5634 18.8217 16.905V17.595L22.54 12.075C22.9233 11.4809 23.9008 11.0592 24.725 11.385C25.6258 11.6917 26.2008 12.6884 26.0092 13.57L25.5492 16.56C25.4917 16.8092 25.5492 17.0775 25.7217 17.25C25.875 17.4225 26.105 17.5375 26.3542 17.5375H30.0917C30.82 17.5375 31.4333 17.825 31.7975 18.3425C32.1425 18.8409 32.2 19.4734 31.97 20.125Z" fill="#2BADE2"/>
</svg>
