<svg width="45" height="45" viewBox="0 0 45 45" fill="none" xmlns="http://www.w3.org/2000/svg">
<path d="M42.5 0H2.5C1.83696 0 1.20107 0.263392 0.732233 0.732233C0.263392 1.20107 0 1.83696 0 2.5V42.5C0 43.163 0.263392 43.7989 0.732233 44.2678C1.20107 44.7366 1.83696 45 2.5 45H42.5C43.163 45 43.7989 44.7366 44.2678 44.2678C44.7366 43.7989 45 43.163 45 42.5V2.5C45 1.83696 44.7366 1.20107 44.2678 0.732233C43.7989 0.263392 43.163 0 42.5 0ZM13.3475 38.3425H6.6675V16.8675H13.3475V38.3425ZM10.0075 13.935C8.98111 13.935 7.99676 13.5273 7.271 12.8015C6.54523 12.0757 6.1375 11.0914 6.1375 10.065C6.1375 9.03861 6.54523 8.05426 7.271 7.3285C7.99676 6.60273 8.98111 6.195 10.0075 6.195C11.0339 6.195 12.0182 6.60273 12.744 7.3285C13.4698 8.05426 13.8775 9.03861 13.8775 10.065C13.8775 11.0914 13.4698 12.0757 12.744 12.8015C12.0182 13.5273 11.0339 13.935 10.0075 13.935ZM38.345 38.3425H31.6725V27.9C31.6725 25.41 31.6275 22.2075 28.2025 22.2075C24.7275 22.2075 24.2 24.9225 24.2 27.725V38.345H17.5325V16.87H23.9325V19.805H24.025C24.9125 18.1175 27.0925 16.3375 30.335 16.3375C37.095 16.3375 38.3425 20.7825 38.3425 26.5675L38.345 38.3425Z" fill="#333872"/>
</svg>
