<svg width="46" height="46" viewBox="0 0 46 46" fill="none" xmlns="http://www.w3.org/2000/svg">
<path d="M40.2308 18.6109C39.5792 18.3425 38.7167 18.2084 37.6433 18.2084H27.5233C24.1883 18.2084 23 19.3967 23 22.77V37.605C23 38.7167 23.1342 39.5792 23.4217 40.25C24.0158 41.63 25.2808 42.1667 27.5233 42.1667H37.6433C40.9783 42.1667 42.1667 40.9592 42.1667 37.605V22.77C42.1667 20.4892 41.63 19.205 40.2308 18.6109ZM34.5 37.8542H30.6667C30.6283 37.8542 30.5708 37.8542 30.5325 37.835C30.245 37.8159 29.9958 37.72 29.785 37.5284C29.44 37.2792 29.2292 36.8767 29.2292 36.4167C29.2292 35.6309 29.8808 34.9792 30.6667 34.9792H34.5C35.2858 34.9792 35.9375 35.6309 35.9375 36.4167C35.9375 37.2025 35.2858 37.8542 34.5 37.8542Z" fill="#2BADE2"/>
<path d="M40.2309 11.8642V13.4167C40.2309 14.4709 39.3684 15.3334 38.3142 15.3334H27.5234C22.6167 15.3334 20.125 17.8442 20.125 22.77V40.25C20.125 41.3042 19.2625 42.1667 18.2084 42.1667H14.4709C13.7042 42.1667 13.0909 41.5534 13.0909 40.8059C13.0909 40.0392 13.7042 39.445 14.4709 39.445H18.2084V32.1042H11.5C7.24504 31.8934 3.85254 28.3859 3.85254 24.0734V11.8642C3.85254 7.43671 7.45587 3.83337 11.9025 3.83337H32.2C36.6275 3.83337 40.2309 7.43671 40.2309 11.8642Z" fill="#2BADE2"/>
</svg>
