<svg width="46" height="46" viewBox="0 0 46 46" fill="none" xmlns="http://www.w3.org/2000/svg">
<path d="M33.599 14.8922C33.4648 14.873 33.3307 14.873 33.1965 14.8922C30.2257 14.7963 27.8682 12.3622 27.8682 9.37217C27.8682 6.32467 30.3407 3.83301 33.4073 3.83301C36.4548 3.83301 38.9465 6.30551 38.9465 9.37217C38.9273 12.3622 36.5698 14.7963 33.599 14.8922Z" fill="#333872"/>
<path d="M39.8477 28.1748C37.7011 29.6123 34.6919 30.149 31.9127 29.7848C32.6411 28.2131 33.0244 26.469 33.0436 24.629C33.0436 22.7123 32.6219 20.8915 31.8169 19.3006C34.6536 18.9173 37.6627 19.454 39.8286 20.8915C42.8569 22.8848 42.8569 26.1623 39.8477 28.1748Z" fill="#333872"/>
<path d="M12.3435 14.8922C12.4776 14.873 12.6118 14.873 12.746 14.8922C15.7168 14.7963 18.0743 12.3622 18.0743 9.37217C18.0743 6.30551 15.6018 3.83301 12.5351 3.83301C9.48764 3.83301 7.01514 6.30551 7.01514 9.37217C7.01514 12.3622 9.37264 14.7963 12.3435 14.8922Z" fill="#333872"/>
<path d="M12.5541 24.6293C12.5541 26.4885 12.9566 28.2518 13.685 29.8427C10.9825 30.1302 8.16498 29.5552 6.09498 28.1943C3.06665 26.1818 3.06665 22.9043 6.09498 20.8918C8.14581 19.5118 11.04 18.956 13.7616 19.2627C12.9758 20.8727 12.5541 22.6935 12.5541 24.6293Z" fill="#333872"/>
<path d="M23.2302 30.4175C23.0769 30.3983 22.9044 30.3983 22.7319 30.4175C19.2052 30.3025 16.3877 27.4083 16.3877 23.8433C16.4069 20.2017 19.3394 17.25 23.0002 17.25C26.6419 17.25 29.5935 20.2017 29.5935 23.8433C29.5744 27.4083 26.776 30.3025 23.2302 30.4175Z" fill="#333872"/>
<path d="M17.0007 34.3846C14.1065 36.3204 14.1065 39.5021 17.0007 41.4187C20.2974 43.6229 25.7024 43.6229 28.999 41.4187C31.8932 39.4829 31.8932 36.3012 28.999 34.3846C25.7215 32.1804 20.3165 32.1804 17.0007 34.3846Z" fill="#333872"/>
</svg>
