<svg width="46" height="46" viewBox="0 0 46 46" fill="none" xmlns="http://www.w3.org/2000/svg">
<path d="M33.599 14.8925C33.4648 14.8733 33.3307 14.8733 33.1965 14.8925C30.2257 14.7966 27.8682 12.3625 27.8682 9.37248C27.8682 6.32498 30.3407 3.83331 33.4073 3.83331C36.4548 3.83331 38.9465 6.30581 38.9465 9.37248C38.9273 12.3625 36.5698 14.7966 33.599 14.8925Z" fill="#2BADE2"/>
<path d="M39.8477 28.175C37.7011 29.6125 34.6919 30.1491 31.9127 29.785C32.6411 28.2133 33.0244 26.4691 33.0436 24.6291C33.0436 22.7125 32.6219 20.8916 31.8169 19.3008C34.6536 18.9175 37.6627 19.4541 39.8286 20.8916C42.8569 22.885 42.8569 26.1625 39.8477 28.175Z" fill="#2BADE2"/>
<path d="M12.3435 14.8925C12.4776 14.8733 12.6118 14.8733 12.746 14.8925C15.7168 14.7966 18.0743 12.3625 18.0743 9.37248C18.0743 6.30581 15.6018 3.83331 12.5351 3.83331C9.48764 3.83331 7.01514 6.30581 7.01514 9.37248C7.01514 12.3625 9.37264 14.7966 12.3435 14.8925Z" fill="#2BADE2"/>
<path d="M12.5541 24.6291C12.5541 26.4883 12.9566 28.2516 13.685 29.8425C10.9825 30.13 8.16498 29.555 6.09498 28.1941C3.06665 26.1816 3.06665 22.9041 6.09498 20.8916C8.14581 19.5116 11.04 18.9558 13.7616 19.2625C12.9758 20.8725 12.5541 22.6933 12.5541 24.6291Z" fill="#2BADE2"/>
<path d="M23.2302 30.4175C23.0769 30.3983 22.9044 30.3983 22.7319 30.4175C19.2052 30.3025 16.3877 27.4083 16.3877 23.8433C16.4069 20.2017 19.3394 17.25 23.0002 17.25C26.6419 17.25 29.5935 20.2017 29.5935 23.8433C29.5744 27.4083 26.776 30.3025 23.2302 30.4175Z" fill="#2BADE2"/>
<path d="M17.0007 34.385C14.1065 36.3208 14.1065 39.5025 17.0007 41.4192C20.2974 43.6233 25.7024 43.6233 28.999 41.4192C31.8932 39.4833 31.8932 36.3017 28.999 34.385C25.7215 32.1808 20.3165 32.1808 17.0007 34.385Z" fill="#2BADE2"/>
</svg>
