<svg width="35" height="36" viewBox="0 0 35 36" fill="none" xmlns="http://www.w3.org/2000/svg">
<path d="M34.357 27.9164L26.3706 20.655C25.9931 20.3118 25.497 20.1288 24.9871 20.1446C24.4771 20.1604 23.9933 20.3736 23.6377 20.7394L18.9362 25.5745C17.8045 25.3584 15.5294 24.6491 13.1875 22.3131C10.8456 19.9693 10.1364 17.6883 9.92615 16.5645L14.7573 11.8611C15.1236 11.5057 15.3372 11.0218 15.3529 10.5118C15.3687 10.0017 15.1854 9.50552 14.8418 9.12823L7.58228 1.14381C7.23854 0.765326 6.7608 0.53575 6.25052 0.503835C5.74024 0.471919 5.23762 0.64018 4.8494 0.972881L0.586031 4.62913C0.246358 4.97003 0.043619 5.42374 0.0162714 5.9042C-0.0131989 6.39537 -0.575099 18.0302 8.44674 27.0558C16.3173 34.9244 26.1761 35.5 28.8913 35.5C29.2881 35.5 29.5318 35.4882 29.5966 35.4843C30.077 35.4574 30.5305 35.2537 30.8697 34.9126L34.524 30.6473C34.858 30.2603 35.0275 29.7581 34.9963 29.2478C34.9651 28.7376 34.7357 28.2598 34.357 27.9164Z" fill="#2BADE2"/>
</svg>
