<svg width="34" height="40" viewBox="0 0 34 40" fill="none" xmlns="http://www.w3.org/2000/svg">
<path d="M29.535 4.9924L18.9934 1.04406C17.9009 0.641563 16.1184 0.641563 15.0259 1.04406L4.4842 4.9924C2.45253 5.75906 0.804199 8.13573 0.804199 10.3016V25.8266C0.804199 27.3791 1.82003 29.4299 3.06587 30.3499L13.6075 38.2274C15.4667 39.6266 18.5142 39.6266 20.3734 38.2274L30.915 30.3499C32.1609 29.4107 33.1767 27.3791 33.1767 25.8266V10.3016C33.1959 8.13573 31.5475 5.75906 29.535 4.9924ZM18.4375 21.6674V26.7082C18.4375 27.4941 17.7859 28.1457 17 28.1457C16.2142 28.1457 15.5625 27.4941 15.5625 26.7082V21.6674C13.6267 21.0541 12.2084 19.2524 12.2084 17.1249C12.2084 14.4799 14.355 12.3332 17 12.3332C19.645 12.3332 21.7917 14.4799 21.7917 17.1249C21.7917 19.2716 20.3734 21.0541 18.4375 21.6674Z" fill="#333872"/>
</svg>
