<svg width="46" height="46" viewBox="0 0 46 46" fill="none" xmlns="http://www.w3.org/2000/svg">
<path d="M35.535 7.99252L24.9934 4.04418C23.9009 3.64168 22.1184 3.64168 21.0259 4.04418L10.4842 7.99252C8.45253 8.75919 6.8042 11.1359 6.8042 13.3017V28.8267C6.8042 30.3792 7.82003 32.43 9.06587 33.35L19.6075 41.2275C21.4667 42.6267 24.5142 42.6267 26.3734 41.2275L36.915 33.35C38.1609 32.4109 39.1767 30.3792 39.1767 28.8267V13.3017C39.1959 11.1359 37.5475 8.75919 35.535 7.99252ZM24.4375 24.6675V29.7084C24.4375 30.4942 23.7859 31.1459 23 31.1459C22.2142 31.1459 21.5625 30.4942 21.5625 29.7084V24.6675C19.6267 24.0542 18.2084 22.2525 18.2084 20.125C18.2084 17.48 20.355 15.3334 23 15.3334C25.645 15.3334 27.7917 17.48 27.7917 20.125C27.7917 22.2717 26.3734 24.0542 24.4375 24.6675Z" fill="#2BADE2"/>
</svg>
