<svg width="35" height="36" viewBox="0 0 35 36" fill="none" xmlns="http://www.w3.org/2000/svg">
<path d="M24.7915 5.60425H10.2082C5.83317 5.60425 2.9165 7.79175 2.9165 12.8959V23.1042C2.9165 28.2084 5.83317 30.3959 10.2082 30.3959H24.7915C29.1665 30.3959 32.0832 28.2084 32.0832 23.1042V12.8959C32.0832 7.79175 29.1665 5.60425 24.7915 5.60425ZM25.4769 14.4855L20.9123 18.1313C19.9498 18.9042 18.7248 19.2834 17.4998 19.2834C16.2748 19.2834 15.0353 18.9042 14.0873 18.1313L9.52275 14.4855C9.05609 14.1063 8.98317 13.4063 9.34775 12.9397C9.72692 12.473 10.4123 12.3855 10.879 12.7647L15.4436 16.4105C16.5519 17.3001 18.4332 17.3001 19.5415 16.4105L24.1061 12.7647C24.5728 12.3855 25.2728 12.4584 25.6373 12.9397C26.0165 13.4063 25.9436 14.1063 25.4769 14.4855Z" fill="#2BADE2"/>
</svg>
